<svg width="34" height="22" viewBox="0 0 34 22" fill="none" xmlns="http://www.w3.org/2000/svg">
<path d="M17 21.1235C19.3054 21.1235 21.1742 19.2576 21.1742 16.9558C21.1742 14.6541 19.3054 12.7881 17 12.7881C14.6947 12.7881 12.8258 14.6541 12.8258 16.9558C12.8258 19.2576 14.6947 21.1235 17 21.1235Z" fill="#4D9D69"/>
<path d="M8.18784 19.4493C9.5671 19.4493 10.6852 18.3329 10.6852 16.9558C10.6852 15.5787 9.5671 14.4623 8.18784 14.4623C6.80858 14.4623 5.69047 15.5787 5.69047 16.9558C5.69047 18.3329 6.80858 19.4493 8.18784 19.4493Z" fill="#367BB7"/>
<path d="M10.382 13.643C11.7612 13.643 12.8793 12.5266 12.8793 11.1495C12.8793 9.7724 11.7612 8.65601 10.382 8.65601C9.00269 8.65601 7.88459 9.7724 7.88459 11.1495C7.88459 12.5266 9.00269 13.643 10.382 13.643Z" fill="#367BB7"/>
<path d="M17 10.6686C18.3793 10.6686 19.4974 9.55225 19.4974 8.17513C19.4974 6.798 18.3793 5.68161 17 5.68161C15.6208 5.68161 14.5026 6.798 14.5026 8.17513C14.5026 9.55225 15.6208 10.6686 17 10.6686Z" fill="#367BB7"/>
<path d="M17 5.1829C17.8276 5.1829 18.4985 4.51307 18.4985 3.68682C18.4985 2.86054 17.8276 2.19072 17 2.19072C16.1725 2.19072 15.5016 2.86054 15.5016 3.68682C15.5016 4.51307 16.1725 5.1829 17 5.1829Z" fill="#367BB7"/>
<path d="M17 1.53172C17.4236 1.53172 17.7671 1.18883 17.7671 0.76586C17.7671 0.342887 17.4236 0 17 0C16.5764 0 16.2329 0.342887 16.2329 0.76586C16.2329 1.18883 16.5764 1.53172 17 1.53172Z" fill="#367BB7"/>
<path d="M29.2015 7.03522C29.6251 7.03522 29.9685 6.69236 29.9685 6.26936C29.9685 5.84639 29.6251 5.50349 29.2015 5.50349C28.7779 5.50349 28.4344 5.84639 28.4344 6.26936C28.4344 6.69236 28.7779 7.03522 29.2015 7.03522Z" fill="#367BB7"/>
<path d="M33.2329 17.7217C33.6566 17.7217 34 17.3788 34 16.9558C34 16.5328 33.6566 16.1899 33.2329 16.1899C32.8093 16.1899 32.4659 16.5328 32.4659 16.9558C32.4659 17.3788 32.8093 17.7217 33.2329 17.7217Z" fill="#367BB7"/>
<path d="M0.767052 17.7217C1.19068 17.7217 1.5341 17.3788 1.5341 16.9558C1.5341 16.5328 1.19068 16.1899 0.767052 16.1899C0.343421 16.1899 0 16.5328 0 16.9558C0 17.3788 0.343421 17.7217 0.767052 17.7217Z" fill="#367BB7"/>
<path d="M4.83422 6.99962C5.25785 6.99962 5.60125 6.65672 5.60125 6.23376C5.60125 5.81075 5.25785 5.4679 4.83422 5.4679C4.41059 5.4679 4.06715 5.81075 4.06715 6.23376C4.06715 6.65672 4.41059 6.99962 4.83422 6.99962Z" fill="#367BB7"/>
<path d="M7.0105 9.68903C7.83809 9.68903 8.50893 9.0192 8.50893 8.19293C8.50893 7.36667 7.83809 6.69684 7.0105 6.69684C6.18295 6.69684 5.51211 7.36667 5.51211 8.19293C5.51211 9.0192 6.18295 9.68903 7.0105 9.68903Z" fill="#367BB7"/>
<path d="M3.69256 18.4519C4.52014 18.4519 5.19098 17.7821 5.19098 16.9558C5.19098 16.1295 4.52014 15.4597 3.69256 15.4597C2.86501 15.4597 2.19414 16.1295 2.19414 16.9558C2.19414 17.7821 2.86501 18.4519 3.69256 18.4519Z" fill="#367BB7"/>
<path d="M26.9895 9.68903C27.8171 9.68903 28.4879 9.0192 28.4879 8.19293C28.4879 7.36667 27.8171 6.69684 26.9895 6.69684C26.162 6.69684 25.4911 7.36667 25.4911 8.19293C25.4911 9.0192 26.162 9.68903 26.9895 9.68903Z" fill="#367BB7"/>
<path d="M30.3075 18.4519C31.135 18.4519 31.8059 17.7821 31.8059 16.9558C31.8059 16.1295 31.135 15.4597 30.3075 15.4597C29.4799 15.4597 28.809 16.1295 28.809 16.9558C28.809 17.7821 29.4799 18.4519 30.3075 18.4519Z" fill="#367BB7"/>
<path d="M23.618 13.6608C24.9973 13.6608 26.1155 12.5444 26.1155 11.1673C26.1155 9.79019 24.9973 8.6738 23.618 8.6738C22.2388 8.6738 21.1207 9.79019 21.1207 11.1673C21.1207 12.5444 22.2388 13.6608 23.618 13.6608Z" fill="#367BB7"/>
<path d="M25.8122 19.4493C27.1914 19.4493 28.3095 18.3329 28.3095 16.9558C28.3095 15.5787 27.1914 14.4623 25.8122 14.4623C24.4329 14.4623 23.3148 15.5787 23.3148 16.9558C23.3148 18.3329 24.4329 19.4493 25.8122 19.4493Z" fill="#367BB7"/>
</svg>
