<?xml version="1.0" encoding="UTF-8"?>
<svg xmlns="http://www.w3.org/2000/svg" id="Layer_1" viewBox="0 0 432 432">
  <defs>
    <style>      .st0 {        fill: #fff;      }      .st1 {        fill: #002d74;      }    </style>
  </defs>
  <rect class="st1" width="432" height="432"></rect>
  <path class="st0" d="M360.3,116.7c5.1,0,23.8,8.7,23.9,13.8,0,7-15.8.3-18.9-.2-8.4-1.6-17.8,0-25.4-2.2-7.5-2.1-13-12-21.7-11.1-5,.5-19.7,5.9-25.4,7.9-19.2,6.6-37.1,15.9-56.7,21.2-12.2,3.3-27.2,2.6-33.9,14.6-5,9.1-8.7,20.7-13.3,30.3-6.5,13.6-17.7,30.3-19.6,44.9-1.7,13.3-.9,24.4-4.5,38.1-1.2,4.7-7.5,18.3-5.7,21.8l2.1,1.8c5.8,1.6,6.5-7.5,8.3-11.3,3-6,12.4-16.6,17.6-21.3,2.8-2.5,13.3-8.8,14.4-10.3s.6-4.8,1.9-7.5c3.6-7.1,22.1-16.6,30.4-13.4l.9,4.3c8.5-1.2,16.7-4.8,25.4-5.6,24.3-2.1,53,9.5,60.8,34,2.3,7.3,5.2,24.3,1.6,31-1.6,3.1-18.6,9.8-22.9,11.3-26,9.3-60.8,19.8-87.6,26.5-57.7,14.4-118.7,11-175.2-7.1-5.9-1.9-25.3-6.5-20.3-15,14.6-15.1,29.1-28.8,45.9-41.5,12.6-9.5,23.9-13.8,31.5-29.3,2.5-5,3.3-10.5,5.4-15.5,8.3-19.6,23.1-34.7,33.9-52.5,9.4-15.4,15.8-24.8,26.1-39.4,11.8-16.6,7.9-21.5,30.8-27.1,30.3-7.4,67.6-14.6,98.5-18.5,17.6-2.2,26.6-1.2,43.7-.1,14.1.9,26.7-3.1,40.7-.7s36.6,13,43.4,27.6c-6.2,10-15.9.6-23-2.4-8.2-3.5-21.9-6.9-30.1-2.1-1.9,1.1-3.3,2.9-2.9,5.1Z"></path>
</svg>
